<mxfile host="app.diagrams.net" modified="2023-10-02T09:01:58.487Z" agent="Mozilla/5.0 (Macintosh; Intel Mac OS X 10.15; rv:109.0) Gecko/20100101 Firefox/118.0" version="21.6.6" etag="-iD4jFvqOHphJfeHW1ag" type="github">
  <diagram name="Page-1" id="QUAmsqYuGDjFpvtQioQg">
    <mxGraphModel>
      <root>
        <mxCell id="0" />
        <mxCell id="1" parent="0" />
      </root>
    </mxGraphModel>
  </diagram>
</mxfile>
